# xmcd
#
# Track frame offsets:
#	150
#	20387
#	42642
#	71539
#	93161
#	111707
#	128646
#	150672
#	173888
#
# Disc length: 2524 seconds
#
# Revision: 0
# Processed by: cddbd v1.5.2PL0 Copyright (c) Steve Scherf et al.
# Submitted via: audiograbber 1.83.01
#
DISCID=7509da09
DTITLE=Bob Dylan - The Bootleg Series Vol. 13 1979-1981 Deluxe Edition: Trouble
DTITLE=No More [CD 7) - Live in London [June 27, 1981]
DYEAR=2017
DGENRE=Rock
TTITLE0=Gotta Serve Somebody [live]
TTITLE1=I Believe In You [live]
TTITLE2=Like A Rolling Stone [live]
TTITLE3=Man Gave Names To All The Animals [live]
TTITLE4=Maggie's Farm [live]
TTITLE5=I Don't Believe You (She Acts Like We Never Have Met) [live]
TTITLE6=Dead Man, Dead Man [live]
TTITLE7=Girl From The North Country [live]
TTITLE8=Ballad Of A Thin Man [live]
EXTD=
EXTT0=
EXTT1=
EXTT2=
EXTT3=
EXTT4=
EXTT5=
EXTT6=
EXTT7=
EXTT8=
PLAYORDER=
